<svg width="512" height="512" viewBox="0 0 512 512" fill="none" xmlns="http://www.w3.org/2000/svg">
<g clip-path="url(#clip0)">
<path d="M501.333 490.667H10.667C4.779 490.667 0 495.445 0 501.333C0 507.221 4.779 512 10.667 512H501.334C507.222 512 512.001 507.221 512.001 501.333C512 495.445 507.221 490.667 501.333 490.667Z" fill="#80E9FF"/>
<path d="M96 362.667H32C26.112 362.667 21.333 367.446 21.333 373.334V501.334C21.333 507.221 26.112 512 32 512H96C101.888 512 106.667 507.221 106.667 501.333V373.333C106.667 367.445 101.888 362.667 96 362.667ZM85.333 490.667H42.667V384H85.334V490.667H85.333Z" fill="#80E9FF"/>
<path d="M224 256H160C154.112 256 149.333 260.779 149.333 266.667V501.334C149.333 507.222 154.112 512.001 160 512.001H224C229.888 512.001 234.667 507.222 234.667 501.334V266.667C234.667 260.779 229.888 256 224 256ZM213.333 490.667H170.666V277.333H213.333V490.667Z" fill="#80E9FF"/>
<path d="M352 298.667H288C282.112 298.667 277.333 303.446 277.333 309.334V501.334C277.333 507.222 282.112 512.001 288 512.001H352C357.888 512.001 362.667 507.222 362.667 501.334V309.334C362.667 303.445 357.888 298.667 352 298.667ZM341.333 490.667H298.666V320H341.333V490.667V490.667Z" fill="#80E9FF"/>
<path d="M480 170.667H416C410.112 170.667 405.333 175.446 405.333 181.334V501.334C405.333 507.222 410.112 512.001 416 512.001H480C485.888 512.001 490.667 507.222 490.667 501.334V181.334C490.667 175.445 485.888 170.667 480 170.667ZM469.333 490.667H426.666V192H469.333V490.667V490.667Z" fill="#80E9FF"/>
<path d="M64 192C40.469 192 21.333 211.136 21.333 234.667C21.333 258.198 40.469 277.334 64 277.334C87.531 277.334 106.667 258.198 106.667 234.667C106.667 211.136 87.531 192 64 192ZM64 256C52.224 256 42.667 246.421 42.667 234.667C42.667 222.912 52.224 213.334 64 213.334C75.776 213.334 85.333 222.913 85.333 234.667C85.333 246.421 75.776 256 64 256Z" fill="#80E9FF"/>
<path d="M192 85.333C168.469 85.333 149.333 104.469 149.333 128C149.333 151.531 168.469 170.667 192 170.667C215.531 170.667 234.667 151.531 234.667 128C234.667 104.469 215.531 85.333 192 85.333ZM192 149.333C180.224 149.333 170.667 139.754 170.667 128C170.667 116.245 180.224 106.667 192 106.667C203.776 106.667 213.333 116.246 213.333 128C213.333 139.755 203.776 149.333 192 149.333Z" fill="#80E9FF"/>
<path d="M320 128C296.469 128 277.333 147.136 277.333 170.667C277.333 194.198 296.469 213.334 320 213.334C343.531 213.334 362.667 194.198 362.667 170.667C362.667 147.136 343.531 128 320 128ZM320 192C308.224 192 298.667 182.421 298.667 170.667C298.667 158.912 308.224 149.334 320 149.334C331.776 149.334 341.333 158.913 341.333 170.667C341.333 182.421 331.776 192 320 192Z" fill="#80E9FF"/>
<path d="M448 0C424.469 0 405.333 19.136 405.333 42.667C405.333 66.198 424.469 85.334 448 85.334C471.531 85.334 490.667 66.198 490.667 42.667C490.667 19.136 471.531 0 448 0ZM448 64C436.224 64 426.667 54.421 426.667 42.667C426.667 30.912 436.224 21.334 448 21.334C459.776 21.334 469.333 30.913 469.333 42.667C469.333 54.421 459.776 64 448 64Z" fill="#80E9FF"/>
<path d="M432.939 57.728C428.779 53.568 422.016 53.568 417.856 57.728L335.083 140.501C330.923 144.661 330.923 151.424 335.083 155.584C337.174 157.653 339.904 158.699 342.635 158.699C345.344 158.699 348.075 157.675 350.166 155.584L432.939 72.811C437.099 68.651 437.099 61.888 432.939 57.728Z" fill="#80E9FF"/>
<path d="M294.208 146.048L225.685 126.507C219.946 124.843 214.122 128.171 212.522 133.846C210.901 139.521 214.186 145.409 219.839 147.03L288.362 166.571C289.343 166.848 290.325 166.976 291.285 166.976C295.936 166.976 300.202 163.925 301.546 159.232C303.168 153.579 299.883 147.669 294.208 146.048Z" fill="#80E9FF"/>
<path d="M175.36 141.291C171.691 136.683 164.992 135.936 160.384 139.584L79.957 203.712C75.349 207.403 74.581 214.101 78.272 218.709C80.384 221.354 83.499 222.72 86.613 222.72C88.938 222.72 91.285 221.952 93.248 220.416L173.675 156.288C178.283 152.597 179.051 145.899 175.36 141.291Z" fill="#80E9FF"/>
</g>
<defs>
<clipPath id="clip0">
<rect width="512" height="512" fill="white"/>
</clipPath>
</defs>
</svg>
