<svg width="512" height="512" viewBox="0 0 512 512" fill="none" xmlns="http://www.w3.org/2000/svg">
<path fill-rule="evenodd" clip-rule="evenodd" d="M502 246.988H468.988V217.328C468.988 211.805 464.512 207.328 458.988 207.328H436.242C432.145 192.422 426.219 178.133 418.555 164.672L434.652 148.574C436.527 146.699 437.582 144.152 437.582 141.504C437.582 138.852 436.527 136.309 434.652 134.43L378.559 78.3359C374.656 74.4336 368.324 74.4336 364.418 78.3359L348.316 94.4375C334.855 86.7695 320.563 80.8437 305.664 76.7461V54C305.664 48.4766 301.188 44 295.664 44H216.336C210.812 44 206.336 48.4766 206.336 54V76.7461C191.434 80.8437 177.141 86.7695 163.68 94.4375L147.582 78.3359C143.676 74.4336 137.344 74.4336 133.438 78.3359L77.3438 134.43C75.4688 136.305 74.4141 138.848 74.4141 141.5C74.4141 144.152 75.4688 146.695 77.3438 148.57L93.4453 164.672C85.7734 178.141 79.8477 192.434 75.7539 207.324H53.0117C47.4883 207.324 43.0117 211.805 43.0117 217.324V246.988H10C4.47656 246.988 0 251.469 0 256.988C0 262.512 4.47656 266.988 10 266.988H216C221.523 266.988 226 262.512 226 256.988C226 251.469 221.523 246.988 216 246.988H172.879C177.84 205.516 213.211 173.25 256 173.25C298.789 173.25 334.16 205.516 339.121 246.988H296C290.477 246.988 286 251.469 286 256.988C286 262.512 290.477 266.988 296 266.988H502C507.523 266.988 512 262.512 512 256.988C512 251.469 507.523 246.988 502 246.988V246.988ZM256 153.25C202.172 153.25 157.789 194.465 152.742 246.988H63.0117V227.328H83.5469C88.2109 227.328 92.2539 224.105 93.2969 219.559C97.4414 201.449 104.578 184.246 114.5 168.426C116.977 164.477 116.398 159.336 113.102 156.039L98.5586 141.5L140.512 99.5508L155.051 114.09C158.352 117.387 163.488 117.965 167.438 115.488C183.242 105.57 200.445 98.4375 218.57 94.2812C223.113 93.2422 226.336 89.1992 226.336 84.5352V64H285.664V84.5352C285.664 89.1992 288.887 93.2422 293.43 94.2852C311.551 98.4375 328.758 105.574 344.566 115.488C348.516 117.969 353.652 117.387 356.949 114.09L371.488 99.5508L413.441 141.504L398.902 156.039C395.605 159.34 395.023 164.477 397.504 168.426C407.418 184.23 414.551 201.434 418.707 219.562C419.746 224.105 423.789 227.328 428.453 227.328H448.992V246.992H359.258C354.211 194.465 309.828 153.25 256 153.25Z" fill="#80E9FF"/>
<path fill-rule="evenodd" clip-rule="evenodd" d="M100.691 323.871H121.785C133.621 323.871 143.246 333.5 143.246 345.336C143.246 350.855 147.727 355.336 153.246 355.336C158.77 355.336 163.246 350.855 163.246 345.336C163.246 322.473 144.648 303.871 121.785 303.871H100.691C77.8281 303.871 59.2266 322.473 59.2266 345.336V421.848C59.2266 444.711 77.8281 463.312 100.691 463.312H121.785C144.648 463.312 163.246 444.711 163.246 421.848C163.246 416.328 158.77 411.848 153.246 411.848C147.727 411.848 143.246 416.328 143.246 421.848C143.246 433.684 133.621 443.312 121.785 443.312H100.691C88.8555 443.312 79.2266 433.684 79.2266 421.848V345.336C79.2266 333.5 88.8555 323.871 100.691 323.871V323.871Z" fill="#80E9FF"/>
<path fill-rule="evenodd" clip-rule="evenodd" d="M324.887 305.875C320.488 304.727 315.863 306.687 313.641 310.656L261.602 403.418L209.562 310.656C207.336 306.687 202.711 304.723 198.312 305.875C193.91 307.023 190.84 311 190.84 315.551V451.633C190.84 457.156 195.316 461.633 200.84 461.633C206.363 461.633 210.84 457.156 210.84 451.633V353.812L252.879 428.75C254.648 431.902 257.98 433.855 261.598 433.855C265.215 433.855 268.551 431.902 270.32 428.75L312.359 353.812V451.633C312.359 457.156 316.836 461.633 322.359 461.633C327.883 461.633 332.359 457.156 332.359 451.633V315.551C332.359 311 329.289 307.023 324.887 305.875V305.875Z" fill="#80E9FF"/>
<path fill-rule="evenodd" clip-rule="evenodd" d="M405.711 373.594C390.789 373.594 378.648 361.453 378.648 346.527C378.648 331.605 390.789 319.465 405.711 319.465C414.437 319.465 422.676 323.711 427.758 330.824C430.965 335.32 437.211 336.359 441.703 333.152C446.199 329.941 447.242 323.699 444.031 319.203C435.207 306.844 420.883 299.465 405.711 299.465C379.762 299.465 358.648 320.578 358.648 346.527C358.648 372.48 379.762 393.594 405.711 393.594C420.633 393.594 432.773 405.73 432.773 420.652C432.773 435.578 420.633 447.719 405.711 447.719C395.617 447.719 386.43 442.16 381.73 433.219C379.164 428.328 373.117 426.449 368.23 429.016C363.34 431.586 361.457 437.629 364.027 442.52C372.191 458.062 388.164 467.719 405.711 467.719C431.66 467.719 452.773 446.605 452.773 420.652C452.773 394.703 431.66 373.594 405.711 373.594V373.594Z" fill="#80E9FF"/>
<path fill-rule="evenodd" clip-rule="evenodd" d="M266 256.988C266 251.484 261.508 246.988 256 246.988C250.492 246.988 246 251.484 246 256.988C246 262.496 250.492 266.988 256 266.988C261.508 266.988 266 262.496 266 256.988Z" fill="#80E9FF"/>
</svg>
