<svg width="512" height="512" viewBox="0 0 512 512" fill="none" xmlns="http://www.w3.org/2000/svg">
<path d="M480.451 40.0811H31.549C14.152 40.0811 0 54.2331 0 71.6291V376.242C0 393.638 14.152 407.79 31.549 407.79H183.375L177.234 456.919H151.79C147.647 456.919 144.29 460.277 144.29 464.419C144.29 468.561 147.647 471.919 151.79 471.919H360.21C364.353 471.919 367.71 468.561 367.71 464.419C367.71 460.277 364.353 456.919 360.21 456.919H334.767L328.625 407.79H480.451C497.847 407.79 512 393.638 512 376.242V71.6291C512 54.2331 497.848 40.0811 480.451 40.0811ZM192.351 456.919L198.493 407.79H226.096L228.804 418.62C231.93 431.123 243.114 439.854 256.001 439.854C268.888 439.854 280.072 431.123 283.198 418.62L285.906 407.79H313.509L319.649 456.919H192.351ZM241.557 407.79H270.442L268.644 414.982C267.191 420.795 261.992 424.854 255.999 424.854C250.006 424.854 244.808 420.794 243.354 414.982L241.557 407.79ZM497 376.242C497 385.367 489.576 392.79 480.451 392.79H31.549C22.424 392.79 15 385.367 15 376.242V71.6291C15 62.5041 22.424 55.0811 31.549 55.0811H480.451C489.576 55.0811 497 62.5041 497 71.6291V376.242V376.242Z" fill="#80E9FF"/>
<path d="M424.338 72.146H39.564C35.421 72.146 32.064 75.503 32.064 79.646V368.226C32.064 372.369 35.421 375.726 39.564 375.726H55.597C59.74 375.726 63.097 372.369 63.097 368.226C63.098 364.084 59.74 360.726 55.598 360.726H47.065V87.146H424.338C428.481 87.146 431.838 83.788 431.838 79.646C431.838 75.503 428.481 72.146 424.338 72.146Z" fill="#80E9FF"/>
<path d="M472.436 72.146H456.403C452.26 72.146 448.903 75.503 448.903 79.646C448.903 83.788 452.26 87.146 456.403 87.146H464.936V360.726H87.662C83.519 360.726 80.162 364.084 80.162 368.226C80.162 372.369 83.519 375.726 87.662 375.726H472.435C476.578 375.726 479.935 372.369 479.935 368.226V79.646C479.936 75.503 476.578 72.146 472.436 72.146Z" fill="#80E9FF"/>
<path d="M358.1 155.184C356.752 153.461 354.719 152.413 352.535 152.314L176.181 144.297C176.043 144.291 175.908 144.288 175.769 144.29C174.725 140.863 172.519 137.891 169.533 135.899L147.936 121.501C144.49 119.204 139.833 120.135 137.536 123.582C135.239 127.029 136.17 131.685 139.616 133.982L161.212 148.378C161.314 148.446 161.389 148.549 161.423 148.667L188.932 244.948C189.79 247.95 191.202 250.648 193.015 252.978L182.95 273.108C180.527 277.953 180.781 283.596 183.629 288.204C184.662 289.875 185.972 291.298 187.477 292.438C185.507 295.877 184.374 299.855 184.374 304.095C184.374 317.071 194.931 327.627 207.906 327.627C220.881 327.627 231.438 317.07 231.438 304.095C231.438 301.086 230.864 298.21 229.83 295.563H298.207C297.173 298.21 296.599 301.086 296.599 304.095C296.599 317.071 307.156 327.627 320.131 327.627C333.106 327.627 343.663 317.07 343.663 304.095C343.663 300.331 342.77 296.774 341.192 293.616C342.706 292.244 343.663 290.268 343.663 288.063C343.663 283.921 340.306 280.563 336.163 280.563H196.825C196.718 280.563 196.537 280.563 196.386 280.318C196.235 280.074 196.316 279.913 196.364 279.816L205.636 261.273C207.523 261.758 209.489 262.02 211.501 262.02C212.428 262.02 213.364 261.965 214.306 261.855L319.692 249.457C333.303 247.855 344.254 237.751 346.942 224.311L359.548 161.277C359.977 159.132 359.448 156.907 358.1 155.184ZM320.129 295.565C324.834 295.565 328.661 299.393 328.661 304.097C328.661 308.802 324.834 312.629 320.129 312.629C315.424 312.629 311.597 308.802 311.597 304.097C311.597 299.392 315.424 295.565 320.129 295.565ZM207.904 295.565C212.609 295.565 216.436 299.392 216.436 304.097C216.436 308.802 212.609 312.629 207.904 312.629C203.199 312.629 199.372 308.802 199.372 304.097C199.372 299.392 203.199 295.565 207.904 295.565ZM189.512 192.387L180.113 159.492L210.098 160.855L215.297 192.387H189.512ZM212.554 246.958C208.372 247.45 204.507 244.871 203.353 240.828L193.798 207.387H217.77L224.071 245.603L212.554 246.958ZM256.517 241.786L238.985 243.849L232.974 207.388H256.517V241.786ZM256.517 192.387H230.5L225.416 161.552L256.517 162.966V192.387ZM294.499 237.317L271.517 240.021V207.387H297.208L294.499 237.317ZM298.566 192.387H271.517V163.647L301.046 164.989L298.566 192.387ZM332.232 221.371C330.822 228.419 325.078 233.72 317.939 234.56L309.722 235.527L312.269 207.388H335.028L332.232 221.371ZM338.029 192.387H313.628L316.046 165.671L343.126 166.902L338.029 192.387Z" fill="#80E9FF"/>
</svg>
